<?xml version="1.0" encoding="UTF-8"?>
<!DOCTYPE svg PUBLIC "-//W3C//DTD SVG 1.1//EN" "http://www.w3.org/Graphics/SVG/1.1/DTD/svg11.dtd">
<!-- Creator: CorelDRAW -->
<svg xmlns="http://www.w3.org/2000/svg" xml:space="preserve" width="83.4171mm" height="22.7968mm" version="1.1" style="shape-rendering:geometricPrecision; text-rendering:geometricPrecision; image-rendering:optimizeQuality; fill-rule:evenodd; clip-rule:evenodd"
viewBox="0 0 721.01 197.04"
 xmlns:xlink="http://www.w3.org/1999/xlink"
 xmlns:xodm="http://www.corel.com/coreldraw/odm/2003">
 <defs>
  <style type="text/css">
   <![CDATA[
    .fil1 {fill:#010101}
    .fil0 {fill:#054A6D}
   ]]>
  </style>
 </defs>
 <g id="Capa_x0020_1">
  <metadata id="CorelCorpID_0Corel-Layer"/>
  <path class="fil0" d="M40.82 25.6l0.06 30.31 -40.83 24.73 -0.04 54.22c9.25,5.42 31.52,19.13 41.31,23.89 3.22,1.56 3.74,0.12 10.21,-3.66l31.04 -18.48c0.83,9.12 0.57,33.46 0.69,45.14l0.27 13c1.1,3.92 3.41,2.03 6.33,0.15l36.06 -21.75c1.27,-0.73 0.12,0.05 1.38,-0.85l0.87 -0.69c1.81,-1.48 1.15,-9.93 1.23,-12.55l41.65 -25 0.54 -53.47c-3.72,-1.33 -39.19,-21.82 -41.53,-23.98l-0.16 -29.7 -44.17 -26.88c-3.31,-0.96 -41.23,23.59 -44.88,25.58zm46.68 102.35l34.13 -20.12 -8.21 -5.2c-5.92,-3.38 -21.93,-13.35 -25.89,-14.76l-0.02 40.09zm0.15 5.31l0.06 57.32c7.22,-3.23 26.74,-17.03 37.07,-22.21l0.01 -56.52c-8.5,3.75 -28.37,17.45 -37.14,21.41zm41.92 -24.72l-0.3 44.91 19.14 -11.26c3.75,-2.19 15.94,-8.93 18.5,-11.39l0.18 -44.43c-5.64,3.04 -12.33,7.22 -18.41,10.76 -6.29,3.66 -13.61,7.68 -19.12,11.41zm-0.02 -5.45l34.69 -20.76c-3.42,-2.56 -31.15,-19 -34.67,-20l-0.03 40.76zm-39 -19.42l34.12 20.2 0.37 -40.48c-5.26,2.34 -11.93,6.89 -17.15,9.76 -5.84,3.22 -13.05,6.72 -17.34,10.52zm-42.4 -57.33c1.3,1.83 2.11,2.06 4.31,3.26 6.68,3.65 32.42,18.53 34.91,20.88l0.14 28.72c5.41,-2.1 13.64,-7.55 18.9,-10.5 5.98,-3.37 12.91,-7.76 18.51,-10.48l0.09 -28.7c-4.63,-3.97 -14.01,-9.02 -19.74,-12.43 -6.08,-3.63 -14.66,-9.57 -20.51,-12.3 -5.95,3.32 -12.18,7.33 -18.28,10.86 -5.51,3.19 -12.87,8.32 -18.33,10.7zm-2.91 55.86l0.05 22.26c3.99,-1.72 29.19,-17.77 37.24,-21.39l0.2 -30.47c-7.2,-2.75 -28.24,-17.84 -37.41,-21.67l-0.08 51.27zm3.15 26.33c11.22,5.93 23.17,13.28 34.13,19.57l0.2 -39.78c-3.67,1.63 -32.65,17.94 -34.33,20.2zm-3.03 44.52c7.52,-2.97 27.89,-17.42 35.08,-20.28 -3.01,-2.82 -33.6,-19.87 -35.03,-20.49l-0.05 40.76zm-40.81 -69.83l-0.11 49.33 36.01 20.44 0.38 -91.51 -18.16 10.62c-6.3,3.81 -12.39,7.2 -18.13,11.12z"/>
  <path class="fil1" d="M612.16 58.36c-28.13,3.91 -23.71,48.54 5.8,44.74 11.72,-1.51 20.55,-11.9 18.8,-25.3 -1.51,-11.6 -11.26,-21.3 -24.61,-19.44zm-1.37 6.69c-18.1,5.38 -11.98,37.29 8.59,31.47 18.11,-5.13 11.47,-37.44 -8.59,-31.47z"/>
  <path class="fil1" d="M432.24 58.42c-29.04,4.63 -22.22,49.14 6.27,44.61 11.66,-1.85 20.15,-11.97 18.39,-25.63 -1.45,-11.27 -11.69,-21.05 -24.66,-18.98zm-1.13 6.85c-19.01,5.92 -10.66,37.75 8.87,31.14 17.61,-5.96 10.69,-37.23 -8.87,-31.14z"/>
  <path class="fil1" d="M396.54 140.77l-0.01 26.45 6.66 0.07 0.08 -16.73c8.8,-0.25 6.58,-0.64 11.83,7.5 1.94,3.01 4.03,6.1 5.42,9.17l7.77 0.06c-1.74,-4.69 -7.67,-13.25 -10.22,-17.47 5.91,-3.13 11.24,-7.31 8.7,-16.57 -3.16,-11.52 -17.97,-9.43 -30.23,-9.4l0.01 16.93zm6.67 4.08c7.36,0.21 16.66,1.15 17.09,-7 0.49,-9.4 -9,-8.32 -17.15,-8.04l0.06 15.04z"/>
  <path class="fil1" d="M232.49 129.06l-0.02 38.2 6.69 -0.06 0.65 -30.86c0.58,0.6 0.55,0.51 1.13,1.22l18.01 24.43c3.44,4.62 2.8,5.9 10.05,5.03l-0.01 -42.99 -6.84 -0.25 0.23 31.84c-0.59,-1.18 -20.5,-27.29 -23.33,-31.55l-6.56 -0.29 -0 5.28z"/>
  <path class="fil1" d="M644.1 102.33l6.63 0.09 -0.03 -30.46c0.26,-1.33 0.18,-0.97 0.57,-1.67 1.2,2.51 4.37,6.3 6.43,9.06l13.07 17.67c3.34,4.62 2.69,5.79 10.08,5.35l0.16 -42.77 -6.66 -0.29 0.11 31.53 -19.7 -26.11c-3.48,-4.8 -3.04,-6.28 -10.68,-5.06l0.02 42.65z"/>
  <path class="fil1" d="M430.54 167.18l6.96 -0.01 3.96 -10.02 18.69 -0.23 3.7 10.26 7.3 0.03 -16.52 -43.37 -7.63 -0.04 -16.45 43.38zm13.09 -16.19l14.15 -0.03 -6.85 -18.8 -7.3 18.82z"/>
  <path class="fil1" d="M388.1 144.8l-17.66 0.04 0.04 5.7 11.14 -0.02c0.64,5.03 0.34,7.4 -3.28,9.38 -9.12,4.98 -21.49,-0.24 -22.58,-12.67 -1.81,-20.64 22.67,-22.99 26.5,-10.39l5.71 -2.56c-1.65,-8.62 -14.67,-14.06 -25.55,-10.05 -20.71,7.63 -18.02,43.79 8.49,43.66 8.49,-0.04 17.07,-3.9 17.16,-12.43 0.04,-3.55 -0.06,-7.07 0.03,-10.64z"/>
  <polygon class="fil1" points="333.39,102.49 339.82,102.42 340.03,83.85 361.78,83.87 361.89,102.5 368.46,102.46 368.68,59.44 361.82,59.35 361.82,77.49 340.08,77.75 339.96,59.62 333.35,59.32 "/>
  <path class="fil1" d="M251.33 102.18l30.08 0.31 0.18 -6.15 -23.46 -0.02 0.05 -12.5 20.66 0.01 -0.04 -6.03 -20.61 -0.01 -0.04 -12.49 22.77 0.17 -0.04 -6.07c-5.58,-0.08 -25.6,-0.77 -29.63,0.47l0.07 42.31z"/>
  <polygon class="fil1" points="314.87,166.89 344.7,167.28 344.47,160.95 321.4,160.97 321.44,148.53 341.98,148.5 342.15,142.57 321.45,142.44 321.51,130.1 343.49,130.06 344.11,123.82 314.87,123.87 "/>
  <path class="fil1" d="M532.96 59.35l-6.85 0.08c0.07,8.06 0.1,16.29 -0.04,24.28 -0.14,7.79 -2.86,13.32 -10.99,13.26 -8.17,-0.06 -10.9,-5.16 -11.19,-13.25 -0.28,-7.67 -0.13,-16.41 0.05,-24.12l-6.65 -0.26c0.17,19.29 -5.18,43.74 17.79,43.92 22.99,0.18 17.88,-24.82 17.89,-43.9z"/>
  <path class="fil1" d="M381.27 90.29c-2.76,1.19 -3.44,1.51 -5.09,3.64 3.28,6.55 11.2,11.53 21.67,8.64 12.24,-3.37 12.04,-14.71 7.61,-19.78 -5.83,-6.68 -19.64,-4.01 -21.64,-10.58 -2.45,-8.04 11.52,-12.21 17.62,-2.46l5.95 -2.75c-2.02,-7.02 -12.98,-10.96 -22.17,-7.79 -8.25,2.85 -11.54,14.15 -4.69,19.97 6.58,5.59 21.18,3.05 20.65,11.82 -0.51,8.51 -15.45,8.52 -19.92,-0.72z"/>
  <path class="fil1" d="M693.84 90.36c-1.87,0.74 -3.86,1.8 -5.15,3.57 2.64,6.25 11.32,11.09 21.08,8.88 8.46,-1.91 14.78,-10.58 9.01,-19.38 -4.6,-7.01 -19.31,-4.83 -21.75,-10.53 -2.18,-5.09 2.09,-8.35 6.82,-8.64 7.28,-0.45 7.36,2.68 11,5.42l5.31 -2.52c-2.63,-7.05 -12.92,-11.48 -22.22,-7.72 -3.86,1.56 -6.92,3.92 -7.77,8.33 -3.96,20.56 26.67,11.32 23.47,24.24 -0.96,3.89 -5.34,5.79 -10.3,5.24 -5.73,-0.64 -7.23,-3.72 -9.5,-6.88z"/>
  <path class="fil1" d="M326.03 91.98l-4.84 -2.55c-4.28,4.02 -7.95,9.95 -17.81,6.85 -5.87,-1.84 -10.05,-7.96 -10.13,-15.53 -0.08,-7.48 4.33,-13.91 10.12,-15.57 3.66,-1.05 8.01,-0.57 11.08,1.02 4.79,2.47 3.84,4.41 6.7,6.17l5.12 -3.13c-4.67,-16.01 -39.97,-15.97 -39.88,11.5 0.04,11.12 6.54,19.07 15.32,21.63 10.91,3.19 22.97,-3.05 24.32,-10.41z"/>
  <polygon class="fil1" points="538.64,65.49 552.02,65.7 552.19,102.51 558.86,102.48 559.22,65.76 573.05,65.66 573.01,59.35 538.66,59.41 "/>
  <polygon class="fil1" points="210.79,65.47 224.34,65.69 224.64,102.39 231.4,102.51 231.43,65.8 245.3,65.63 245.23,59.36 210.78,59.41 "/>
  <path class="fil1" d="M274.79 126.13l-0.04 4 13.82 0.01c0.76,7.72 0.26,28.91 0.26,37.12l6.82 -0 0.02 -37.08 13.65 -0.1 -0.06 -6.06 -34.49 -0.19 0.01 2.31z"/>
  <polygon class="fil1" points="475.96,167.26 504.88,167.25 504.88,160.98 483.12,160.98 482.85,123.87 475.95,123.8 "/>
  <polygon class="fil1" points="464.57,65.39 464.64,102.47 492.87,102.47 492.97,96.33 471.42,96.2 471.48,59.36 464.55,59.39 "/>
  <polygon class="fil1" points="216.34,128.32 216.33,167.27 223.06,167.23 223.06,123.88 216.33,123.79 "/>
  <polygon class="fil1" points="578.9,102.41 585.59,102.39 585.71,59.78 578.83,59.38 "/>
 </g>
</svg>
